<?xml version="1.0" encoding="utf-8"?><svg xmlns="http://www.w3.org/2000/svg" xmlns:xlink="http://www.w3.org/1999/xlink"><symbol viewBox="0 0 300 300" id="play" xmlns="http://www.w3.org/2000/svg"><path d="M196.1 139.6l-91-72.5c-8.7-6.9-21.5-.7-21.5 10.4v145c0 11.1 12.8 17.3 21.5 10.4l91-72.5c6.7-5.3 6.7-15.5 0-20.8z"/></symbol><symbol viewBox="0 0 38 38.638" id="salad" xmlns="http://www.w3.org/2000/svg"><g fill-rule="evenodd" clip-rule="evenodd"><path d="M11.954 35.416l-.292-.355.039-.084c.092.048.195.081.273.146.113.093.252.192.296.317.035.102-.055.246-.092.379-.422-.187-.742-.097-.947.236-.037.06-.013.16-.009.24.01.253.021.506.036.759.007.117.024.233.04.386h-.976l-.018-.092c.124-.025.248-.061.373-.071.168-.015.288-.052.252-.263-.006-.039.051-.089.08-.134.029-.046.093-.108.081-.134a.367.367 0 00-.147-.148c-.111-.061-.231-.105-.349-.156l.046-.094.392.15c-.38-.403.054-.563.12-.822.119-.474.545.056.802-.26zm6.106.23c-.368.283-.582.573-.418 1.026.068.188-.129.338-.336.275-.111-.034-.22-.073-.381-.128l.128.403c-.087-.053-.143-.067-.147-.093-.056-.281-.15-.523-.489-.557.012-.104-.003-.224.043-.309.032-.059.15-.068.25-.107l.121.137c.243.274.477.244.625-.086a3.07 3.07 0 00.167-.439c.071-.268.21-.278.437-.122zm.172-5.924c.017.598.017.598.186.635l-.253.665a21.846 21.846 0 01-.124-.201l-.625-.282c.376-.056.514-.229.453-.6-.053-.314.157-.285.363-.217zm-3.725 3.736c-.249-.164-.387-.257-.526-.349l-.007-.099c.163-.004.334-.033.485.007.041.012.028.233.048.441zm2.836-1.139l.899-.26.044.133-.888.292a15.943 15.943 0 00-.055-.165zm-2.434.645l.735.046-.015.136c-.249.018-.503.084-.734-.054l.014-.128zm-1.77-1.013l.273-.652c.049.054.167.156.155.174-.114.177-.054.527-.428.478zm4.174 5.624l.57.851-.098.066c-.189-.279-.378-.561-.568-.84l.096-.077zm14.556-6.417l.102.076c.127-.145.245-.298.346-.467-.039.021-.078.05-.116.061l-.332.33zM8.549 13.722c.394.195.844-.044 1.04-.46.163-.346.373-.668.598-.981.022-.125.045-.25.08-.369.128-.436.482-.617.877-.399a5.55 5.55 0 011.166.888c.431.417.794.903 1.2 1.347.342.375.748.405 1.054.105.288-.284.283-.681-.055-1.031-.683-.705-1.274-1.465-1.341-2.484-.028-.43.004-.891.134-1.299.296-.93 1.189-1.231 1.982-.655.425.309.761.747 1.112 1.151.258-.27.339-.663.245-1.226-.143-.855.425-.782.987-.598.082-.559.365-.93.962-1.169a6.14 6.14 0 011.071-.321c.585-.12 1.166-.266 1.742-.44l-1.267-1.047c-.04.154-.082.303-.176.657-.226-.417-.362-.68-.508-.938-.167-.296-.312-.616-.519-.878-1.25.264-2.402.748-3.252 1.802-.061.076-.238.105-.348.085-.095-.016-.185-.015-.278-.026.039.031.085.06.122.093.03.027-.12.379-.2.384-.256.017-.52-.057-.821-.103l.085-.402c-1.649.086-2.958 1.058-3.534 2.757-.151.442-.323.65-.826.757-1.43.308-2.107 1.377-2.374 2.724a7.274 7.274 0 00-.108.923c.241-.491.585-.902.898-.97l-.902 1.998c.006.125.005.25.017.375.192-.295.798-.417 1.137-.25z"/><path d="M22.9 2.993l-.325-.141c-.155.269-.219.728-.699.435l.228-.791a7.83 7.83 0 01-.737.373.77.77 0 00-.151.273c-.07.258.174.601.294.95-.468.371-.459-.427-.914-.428.099.458.088.971.318 1.329.183.284.489.487.788.696.145-.048.29-.082.434-.137V3.569l.345-.008c0 .237-.053.489.013.706.094.307.211.658.434.865.014.014.026.037.04.053.03-.016.062-.026.092-.042l-.028.125c.375.54.567 1.877.214 2.276a.466.466 0 01-.32.142c-.085-.005-.207-.109-.241-.198l-.041-.111a8.717 8.717 0 00-.012 1.371c.059.213.202.369.631.233l-.578.306c.02.142.033.284.058.425.077.44.377.668.785.609.391-.056.649-.405.558-.824-.314-1.449.213-2.571 1.33-3.456.882-.699 1.791-1.367 2.948-1.538.958-.142 1.534.333 1.533 1.305-.001.461-.116.923-.184 1.383-.021.146-.066.288-.085.433-.058.408.159.732.533.812.347.073.67-.139.79-.515.028-.091.054-.183.08-.275a9.075 9.075 0 01-1.191-.131c.411 0 .821.008 1.232.011.023-.072.045-.145.076-.212.476-1.039 1.554-1.282 2.351-.467.146.15.268.329.395.501.231-.028.469-.057.687-.081a3076.59 3076.59 0 01-.639-3.352 4.627 4.627 0 00-1.749-.288c-.1.001-.24-.095-.3-.186-.882-1.339-2.163-1.833-3.696-1.665-.73.08-1.441.33-2.183.507-.022-.078-.053-.205-.094-.33-.313-.962-1.472-1.329-2.196-.632-.017.015-.035.026-.051.042l-.24.657c-.968-.06-.196.692-.533.973z"/><path d="M37.321 13.829c-.116-.188-.125-.307-.003-.494a4.2 4.2 0 00.681-2.393c-.017-1.192-.313-2.293-.782-3.332l-1.748.138.49.88c-.662-.208-1.075-.347-1.488-.468.08.122.156.241.242.362-.448.19-.806.301-1.123.483a56.143 56.143 0 00-2.568 1.545c-.448.29-.51.724-.232 1.061.256.312.666.32 1.066.011a11.219 11.219 0 013.185-1.733c.526.926.204 2.042-.699 2.483-.517.253-.786.675-.78 1.251.008.594.307 1.001.844 1.252.202.095.389.224.584.337l-.058.153c-.905-.122-1.812-.244-2.719-.368-.131-.018-.262-.051-.394-.068-.417-.055-.744.163-.809.531-.066.388.131.718.551.794.801.146 1.609.25 2.415.372l.198.027c-.771.827-.768 1.094-.375 2.16.277.755.398 1.568.584 2.357.049.207-.051.307-.254.367-.985.295-1.932.217-2.831-.28-.468-.259-.915-.552-1.371-.832-.435-.266-.823-.216-1.055.141-.228.352-.113.739.315 1.014.348.225.701.44 1.057.652 1.57.934 1.678 3.008.209 4.085-.107.079-.221.147-.313.21-.708-.537-1.396-1.061-2.087-1.58a2.504 2.504 0 00-.407-.256.674.674 0 00-.869.229c.613.452 1.016 1.037 1.289 1.712a10.393 10.393 0 011.754 1.735c-.055-.459-.027-.872.139-1.121l1.385 3.848c-.58-.253-1.074-1.064-1.343-1.9-.021.045-.039.091-.067.133-.105.16-.381.273-.587.285-.285.018-.581-.068-.866-.129-.496-.105-.99-.221-1.482-.342a4.39 4.39 0 01-1.834-.945 13.829 13.829 0 00-1.168-.912c-.354-.244-.731-.162-.955.152-.232.326-.154.707.199.979.256.195.511.391.767.582.412.307.595.695.586 1.145h2.347c-1.023.586-1.823.691-2.388.313-.007.035-.005.068-.015.105-.166.648-.599 1.052-1.225 1.217.303.139.604.289.858.495.104.085.017.409.017.645-.45-.22-.774-.36-1.08-.533-.135-.077-.33-.231-.32-.334a.5.5 0 01.111-.214c-1.379.094-2.773-1.07-2.874-2.511-.024-.358.004-.721.019-1.081.015-.433-.203-.733-.579-.777-.388-.047-.712.17-.765.593-.061.5-.056 1.01-.081 1.571-1.03-.095-1.844.375-2.471 1.098-.017.018-.035.033-.051.052.194.29.388.581.583.87-.089.061-.179.121-.269.18l-.547-.807c-.838.813-1.847 1.177-3.029 1.229-.907.04-1.813.134-2.719.2-.046.004-.094-.01-.227-.023.502-.516.933-1.004 1.412-1.443.996-.913 1.959-1.866 3.047-2.67-.209-.121-.344-.164-.357-.227-.079-.397-.188-.766-.399-1.043a31.308 31.308 0 01-1.953 1.783c-2.34 1.963-4.331 4.287-6.387 6.536-.174.19-.299.259-.528.104-.253-.169-.529-.305-.829-.475.961-.877 1.891-1.732 2.829-2.58 1.498-1.354 2.973-2.734 4.508-4.046a23.567 23.567 0 001.803-1.723 1.6 1.6 0 00-.389-.089c.031-.288-.01-.615.119-.85.088-.159.414-.189.688-.297.1.114.215.247.332.379l.009.01a24.575 24.575 0 003.753-5.962c.732-1.631 1.487-3.258 2.329-4.834.576-1.079 1.311-2.075 1.997-3.091.296-.439.315-.838-.021-1.098-.317-.246-.729-.155-1.043.229-1.502 1.84-2.532 3.953-3.525 6.087-.394.848-.792 1.693-1.189 2.54-.056.116-.122.227-.216.4-.233-1.224-.64-2.301-1.307-3.272-.083-.121-.166-.244-.259-.357-.274-.337-.682-.41-.989-.186-.32.235-.365.625-.113.995.112.167.238.324.343.494.703 1.141 1.12 2.366 1.02 3.723-.077 1.036-.51 1.948-1.186 2.708a45.823 45.823 0 01-2.756 2.854c-1.916 1.805-3.874 3.566-5.817 5.348-.175-.107-.328-.211-.49-.299-.313-.173-.421-.436-.353-.774.073-.358.326-.378.639-.361.952.05 1.629-.755 1.431-1.672-.086-.399.011-.51.428-.481.146.008.295.039.438.022.827-.097 1.362-.86 1.183-1.677-.02-.09-.036-.181-.057-.287.333-.033.65-.07.969-.092.73-.053 1.219-.401 1.391-1.005.176-.62-.042-1.147-.65-1.578-1.014-.718-1.142-2.06-.275-2.881.691-.657 1.896-.58 2.499.159.288.354.657.422.981.184.301-.223.363-.605.141-.966a4.455 4.455 0 00-.378-.518c-1.713-2.034-2.433-4.422-2.558-7.017-.115.204-.286.368-.606.664-.497.461-1.491.78-1.838.588l-.234.003c.076.583.183 1.165.322 1.742.025.104.061.206.088.31l.608-.371c.152.15.238.352.272.575l1.761.113-.041.375c-.582.039-1.175.173-1.73-.02a1.677 1.677 0 01-.165.458l-.425-.151c.122.385.248.77.366 1.158-2.057 1.356-2.833 3.206-2.094 5.648-.83.065-1.169.639-1.406 1.313-.053.15-.116.308-.12.464-.006.337-.198.481-.485.587-.602.221-.958.635-1.038 1.298-.023.192-.169.451-.332.532-.923.452-1.437 1.221-1.727 2.156-.283.914-.101 1.794.345 2.651l-.963.735c-1.004.764-.933 1.871.166 2.49 1.07.604 2.146 1.199 3.219 1.795 1.009.561 1.469.537 2.356-.215a8.084 8.084 0 001.07-1.133c.816-1.02 1.819-1.67 3.155-1.751a92.852 92.852 0 002.837-.219c1.621-.147 3.077-.67 4.194-1.919.179-.199.334-.42.5-.631l.179.003c.081.124.135.286.247.367.625.452 1.219.978 1.905 1.308 2.676 1.283 5.321.148 6.37-1.912.044-.086.255-.146.372-.127.474.08.936.22 1.41.293 1.263.199 2.363-.166 3.11-.893a8.661 8.661 0 01-.309-.617c-.222-.505.346-1.371.921-1.557a.96.96 0 00.393-.24 4.291 4.291 0 00-.039-.735.677.677 0 01.156-.474c.041-.045.075-.094.114-.139-.251-.739-.386-1.516-.462-2.3.588.853.84 1.229.941 1.645.24-.388.428-.802.526-1.259.097-.452.11-.922.163-1.413.078-.019.185-.032.281-.072.649-.269 1.314-.51 1.941-.823.459-.231.659-.672.688-1.193.063-1.185-.028-2.352-.405-3.482-.077-.23-.008-.357.146-.517 1.2-1.249 1.379-2.927.464-4.413zM36.016 5.54a5.059 5.059 0 00-1.168-1.144c.011.199.037.389.125.546.162.29.614.42 1.043.598zm-1.163.596c.577.386 1.094.942 1.708 1.085.159.038.324.051.493.05a13.36 13.36 0 00-.783-1.377c-.017-.026-.036-.049-.054-.075-.206.557-.92-.111-1.364.317z"/><path d="M26.354 14.139c1.049-.661 1.922-1.513 2.691-2.466.037-.542.277-.893.731-1.041a.648.648 0 00-.239-.767c-.318-.23-.721-.174-.979.202-.992 1.453-2.313 2.54-3.766 3.497-2.041 1.345-3.647 3.124-5.002 5.14-.507.753-1.026 1.502-1.487 2.285a30.105 30.105 0 01-1.856 2.748c.192-.025.428.07.718.271-1.012.777-1.6 1.574-1.15 2.82a.556.556 0 01.013.363c.261-.214.506-.455.749-.688.909-.869 1.915-1.523 3.023-1.953-.061-.205-.082-.471-.043-.822l.662.61a8.88 8.88 0 011.814-.35c.17-.015.355-.034.503-.109.315-.159.411-.444.331-.78a.648.648 0 00-.773-.484c-.967.182-1.927.407-2.888.62-.113.024-.218.081-.384.044.428-.346.837-.717 1.287-1.031 1.196-.838 2.566-1.299 3.938-1.752 1.482-.49 2.97-.968 4.453-1.454.51-.167.719-.52.564-.929-.148-.39-.49-.541-.96-.377-2.058.716-4.176 1.269-6.201 2.076.012.284-.019.634-.103 1.071-.119-.293-.236-.587-.361-.877-.467.197-.93.404-1.383.637-.008.004-.023-.005-.074-.018.052-.091.096-.177.146-.259.277-.451.572-.884.876-1.308a3.766 3.766 0 00-.052-.111c.051-.009.093-.007.14-.01 1.38-1.895 3.034-3.522 5.062-4.798zM14.042 27.236l.336 1.057a11.86 11.86 0 011.036-.673.895.895 0 01-.325-.032c-.304-.092-.602-.202-1.047-.352zm4.463-16.304c.299-.299.277-.694-.095-1.056a3.43 3.43 0 01-.291-.331l-.534 1.4c.309.242.668.24.92-.013zm-.831-2.268c.037.616.112.707.363.771a2.382 2.382 0 01-.363-.771zm-1.723 15.711a29.63 29.63 0 01-1.599 1.854c.451.19.859-.029 1.149-.674.173-.386.338-.776.45-1.18zm5.889-18.23l.164-.233a5.382 5.382 0 00-.303-.223c-.1.033-.199.064-.299.094l.438.362zm-3.148-3.038c-.41-.357-.786-.753-1.177-1.132.397.564.909 1.013 1.361 1.516.022.025.036.059.057.085.09-.019.18-.039.27-.055-.171-.134-.344-.269-.511-.414zM6.866 9.071c-.165.156-.228.419-.337.635l.624-.013.076 1.553c.556-.856.875-1.729.496-2.755-.297.194-.614.349-.859.58zm1.598 7.914c.094.056.19.097.288.13.034-.164.032-.319.009-.468l-.26-.017-.037.355zm-1.497.014l1.195.423a20.983 20.983 0 01-.281-.979l-.914.556zm-1.07 1.335c.574-.12 1.148-.24 1.722-.358l-.02-.197c-.365-.102-.725-.262-1.095-.294-.578-.048-.82.313-.607.849zm9.167-14.607c.431.631.927.024 1.44.14-.506-.614-.984-.642-1.44-.14zm-9.588 7.858l-1.324-1.283c-.071.615.383 1.044 1.324 1.283zm-2.911-1.027c-.053.045-.031.211-.002.313.066.228.158.448.273.767.111-.114.307-.23.295-.321-.034-.275-.138-.544-.245-.803-.012-.03-.247-.018-.321.044zM17.577 0l-.775.161.826.666L17.577 0z"/></g></symbol><symbol viewBox="0 0 40.189 43.416" id="sauce" xmlns="http://www.w3.org/2000/svg"><path d="M15.407 6.22c.04.091.187.22.244.201.109-.033.259-.151.271-.249.099-.81-.205-1.502-.67-2.23-.123.478-.505.797-.236 1.281.17.308.248.67.391.997zm8.471 3.429l.39-1.024c-.261-.056-.261-.056-.287-.978-.316-.105-.64-.151-.56.332.096.571-.117.839-.697.927l.963.434.191.309zm3.399 7.086l1.319.265-.196-.428.565-.324c-1.171-.367-1.43-.281-1.688.487zm-.336-9.105a.253.253 0 00.18-.079c.217-.244.07-1.121-.178-1.352-.125-.116-.189-.313-.242-.484-.037-.122-.008-.264-.008-.396l-.193.005v1.349c.084.231.189.542.308.846.018.049.086.108.133.111zm.189.725c-.517.164-.307-.422-.432-.479-.27.35-.506.659-.743.968.015.036.03.073.046.107.376-.197.752-.396 1.129-.596zm-3.066 3.097l-.066-.205c-.462.135-.924.268-1.385.401l.085.254c.456-.15.911-.299 1.366-.45zm-4.093 1.472l.023-.21-1.132-.072-.021.198c.355.21.747.109 1.13.084zM9.639 23.044l.011.153.811.536c-.031-.32-.009-.66-.074-.678-.234-.062-.497-.016-.748-.011zm1.421.126c.355.21.748.109 1.13.084l.023-.21-1.132-.072-.021.198zM.862 29.643c-.329.14-.586.449-.862.674.323.133.646.355.981.376.277.018.627-.144.829-.344.11-.109.047-.631-.058-.673-.264-.107-.636-.143-.89-.033zm2.412 5.126l1.881 2.024.201-.199-1.811-2.083-.271.258zm9.741 8.647l1.949-.178-1.129-1.029c-.215.315-.415.609-.82 1.207zm2.23-21.292l1.039-.342-.067-.205c-.338.099-.677.196-1.015.294l-.695-3.999a1.494 1.494 0 00-.598-.956c.22-.03.465 0 .746.124.057-.205.196-.429.142-.584-.068-.193-.282-.347-.457-.49-.121-.099-.279-.149-.421-.223l-.06.129.45.548c-.352.435-.91-.16-1.158.22a1.422 1.422 0 00-.379.012 1.5 1.5 0 00-1.221 1.734l2.526 14.533a1.5 1.5 0 002.956-.513l-1.788-10.282zm16.451 12.71c-.143.109.253 1.356.429 1.363.635.028 1.281-.254 2.143-.475l-.492-1.925c-.708.327-1.477.573-2.08 1.037z"/><path d="M39.365 6.225c.095-.47.205-.937.316-1.403.183-.768.372-1.561.488-2.359.071-.479-.048-1.523-.526-1.811l-.085-.043c-.586-.234-1.461.01-1.936.368-.845.64-1.654 1.345-2.438 2.026-.411.358-.822.717-1.239 1.066a1.778 1.778 0 01-.38.258c-1.369-.553-1.945.453-2.385 1.221l-.186.332c-.252.451-.49.877-.788 1.254-.143.182-.432.346-.618.355-1.404.061-2.48.693-3.195 1.881l-3.558 5.909c-.472.783-.942 1.566-1.413 2.35-.078.024-.145.052-.172.1a.647.647 0 00-.056.279c-.572.951-1.144 1.901-1.715 2.853l.732 4.373 1.84-3.059.908-1.51.335.493.15-.101-.38-.567.361-.599 1.406-2.338.344-.57c.069.414.385.465.709.505a9.86 9.86 0 01.104-.115l-.674-.62 1.084-1.798.028.069c.011-.057.009-.092.017-.144.752-1.251 1.504-2.502 2.26-3.751.52-.859.709-.908 1.559-.402l.406.243.957-1.977.402 2.79.641.383c.781.47 1.561.941 2.339 1.416.827.505.874.71.355 1.572-.958 1.595-1.919 3.188-2.878 4.781l-.025 1.419a4.846 4.846 0 01-.611-.361c-2.326 3.866-4.651 7.733-6.98 11.599-.55.912-.733.959-1.637.421-.625-.373-1.248-.752-1.872-1.127l-.799-4.608.256.052-.196-.428c.191-.11.339-.196.565-.324a4.749 4.749 0 00-.78-.192.532.532 0 00-.007-.039l-.526-3.025c-.162-.93-.319-1.86-.477-2.791-.095-.564-.197-1.142-.294-1.713l.25-.132c-.134.043-.218.033-.273-.003-.074-.436-.147-.867-.224-1.305.054.151.112.311.174.471.019.05.087.108.134.111a.255.255 0 00.18-.079c.216-.244.069-1.121-.178-1.352-.125-.116-.19-.313-.243-.484-.037-.122-.007-.264-.007-.396l-.194.006v.964a145.764 145.764 0 00-.63-3.316l.153.102c-.031-.32-.009-.66-.074-.678-.067-.018-.14-.015-.211-.018-.204-.711-.646-1.623-1.282-2.042.033-.115.062-.232.119-.322.019-.028-.163-.186-.238-.269l-.178.426c-1.028-.455-1.14-1.187-1.294-2.249l-.038-.284c-.042-.35-.087-.709-.223-1.053-.131-.331-.49-1.101-.995-1.1-.65.002-.853-.354-1.154-.984a6.844 6.844 0 00-.216-.428 43.903 43.903 0 01-.679-1.268c-.364-.699-.742-1.424-1.176-2.104C10.344.624 9.57-.087 9.02.009l-.093.023c-.595.207-1.098.963-1.222 1.546-.219 1.036-.37 2.099-.515 3.127-.076.54-.152 1.08-.238 1.618a1.828 1.828 0 01-.119.444C5.437 7.244 5.66 8.384 5.83 9.251l.076.373c.104.506.203.983.226 1.463.011.23-.1.545-.235.674-1.022.966-1.42 2.148-1.183 3.515l.003.018 2.748 3.615-.803 1.081c-.4-.366-.771-.771-1.205-1.091-.052-.038-.087-.086-.136-.126l.573 3.299.749 4.297c-.029-.023-.058-.05-.085-.072-.121-.099-.279-.149-.421-.223l-.06.129.45.548c-.395.487-1.053-.33-1.237.4-.101.399-.769.645-.183 1.267l-.604-.232-.07.145c.18.078.366.147.537.242a.566.566 0 01.227.228c.019.039-.08.135-.125.206-.043.07-.132.146-.122.208.054.324-.13.381-.39.403-.193.015-.383.071-.574.11l.027.141h1.503c-.025-.233-.051-.413-.062-.595a57.04 57.04 0 01-.056-1.168c-.005-.125-.042-.279.014-.37.307-.497.781-.635 1.402-.382.5 2.873.997 5.746 1.501 8.619.393 2.233 2.115 3.433 4.387 3.057a362.73 362.73 0 002.571-.438c.995-.173 1.989-.35 2.982-.525l.124-.021c1.011-.18 1.79-.576 2.345-1.14l-.143-.751.371-.174c.066.13.131.261.195.392.4-.638.592-1.422.531-2.343l.262 1.564a4.9 4.9 0 001.363.528c.042-.133.078-.253.134-.403.073.165.144.319.208.466 1.438.188 2.718-.494 3.649-2.036a3114.77 3114.77 0 003.518-5.84c-.247-.19-.5-.371-.742-.567-.2-.163-.094-.707-.13-1.075.643-.031 1.293-.123 1.928-.112l.708-1.176c.486-.81.978-1.616 1.468-2.423 1.299-2.135 2.643-4.344 3.889-6.563.4-.715.845-2.088.422-2.936-.523-1.052-.119-1.683.471-2.604l.158-.24c.195-.291.398-.593.521-.941.117-.336.35-1.152-.033-1.482-.492-.424-.412-.826-.227-1.5a5.89 5.89 0 00.12-.465zM22.253 21.327c-.174-.167-.514-.361-.49-.495.056-.332.277-.637.547-1.188.049.071.097.132.144.193a.915.915 0 01-.036.029l.395.582c-.12.317-.364.589-.56.879zM12.177 8.852l.221 1.271-3.321.577-.221-1.271 3.321-.577zM9.399 2.726l2.117 3.242-3.015.523.898-3.765zm8.407 32.489c-1.782.317-3.565.628-5.352.931-1.03.174-1.17.07-1.358-1.002-.307-1.752-.611-3.505-.915-5.257-.208.055-.436.114-.708.188.188-.518.344-.966.499-1.39l-.155-.89-.456-2.625-.468-2.689-.197-1.135c.2-.144.189-.476.316-.673.019-.028-.163-.186-.238-.269a42.63 42.63 0 00-.17.407c-.237-1.359-.472-2.719-.707-4.078.105-.042.232-.143.243-.232.092-.755-.173-1.408-.585-2.084.033-.406.286-.528.973-.651a489.182 489.182 0 015.456-.947c.956-.161 1.125-.037 1.299.955.241 1.384.48 2.768.722 4.152-.237-.047-.427.002-.363.383.096.571-.117.839-.697.927l.962.434.191.31.181-.476 1.329 7.648a58.381 58.381 0 01-.22-.203c-.055.5.098.694.321.784.353 2.031.708 4.062 1.059 6.092.18 1.049.073 1.205-.962 1.39zm17.768-24.706L32.685 8.77l.666-1.105 2.889 1.739-.666 1.105zm2.053-3.719l-2.622-1.578 3.146-2.258-.524 3.836z"/><path d="M22.427 30.894a1.499 1.499 0 002.058-.512l7.606-12.637a1.499 1.499 0 00-.512-2.059 1.499 1.499 0 00-2.058.512l-7.606 12.637a1.5 1.5 0 00.512 2.059z"/></symbol><symbol viewBox="0 0 37.453 31.21" id="twitter" xmlns="http://www.w3.org/2000/svg"><path d="M36.421.577a15.112 15.112 0 01-4.884 1.909A7.575 7.575 0 0025.93 0c-4.24 0-7.682 3.528-7.682 7.879 0 .618.066 1.217.198 1.794-6.385-.329-12.047-3.462-15.839-8.235a8.02 8.02 0 00-1.04 3.966c0 2.731 1.356 5.144 3.418 6.557a7.547 7.547 0 01-3.481-.981v.096c0 3.819 2.648 7.004 6.167 7.725a7.292 7.292 0 01-2.025.277c-.495 0-.979-.047-1.447-.139.979 3.129 3.815 5.408 7.179 5.469a15.172 15.172 0 01-9.544 3.375c-.619 0-1.232-.037-1.833-.109a21.388 21.388 0 0011.778 3.537c14.136 0 21.863-12.004 21.863-22.417 0-.343-.006-.685-.021-1.021a15.749 15.749 0 003.832-4.078 15.04 15.04 0 01-4.412 1.24 7.861 7.861 0 003.38-4.358"/></symbol><symbol viewBox="0 0 126 72" id="vk" xmlns="http://www.w3.org/2000/svg"><defs><path id="ea" d="M0 0h126v72H0z"/></defs><clipPath id="eb"><use xlink:href="#ea" overflow="visible"/></clipPath><path clip-path="url(#eb)" d="M124.523 64.503a8.35 8.35 0 00-.426-.816c-2.172-3.91-6.324-8.711-12.449-14.401l-.129-.134-.066-.063-.066-.066h-.063c-2.781-2.651-4.543-4.434-5.281-5.344-1.348-1.738-1.652-3.5-.914-5.281.523-1.348 2.477-4.19 5.867-8.538a447.262 447.262 0 004.234-5.539c7.52-9.996 10.777-16.383 9.777-19.164l-.387-.649c-.262-.39-.934-.75-2.02-1.074-1.086-.327-2.477-.383-4.172-.163l-18.772.127c-.301-.105-.738-.099-1.301.034l-.852.195-.323.166-.258.195c-.219.129-.457.354-.719.683a4.443 4.443 0 00-.648 1.142c-2.047 5.258-4.367 10.145-6.977 14.663-1.609 2.695-3.086 5.031-4.434 7.009-1.348 1.976-2.477 3.434-3.387 4.366-.914.935-1.738 1.685-2.477 2.246-.742.567-1.305.806-1.695.72-.391-.091-.762-.177-1.109-.263a4.288 4.288 0 01-1.465-1.597c-.371-.672-.621-1.52-.75-2.543a28.65 28.65 0 01-.23-2.637c-.02-.738-.008-1.785.035-3.129.043-1.349.066-2.263.066-2.738 0-1.653.031-3.446.094-5.379.066-1.935.121-3.465.164-4.594.043-1.13.066-2.324.066-3.587 0-1.258-.078-2.245-.23-2.965a9.987 9.987 0 00-.684-2.086c-.305-.672-.75-1.194-1.336-1.562-.586-.371-1.313-.664-2.18-.883-2.305-.521-5.238-.802-8.8-.849-8.082-.086-13.274.438-15.579 1.567-.914.476-1.738 1.129-2.476 1.953-.781.957-.891 1.479-.328 1.565 2.609.392 4.453 1.325 5.543 2.802l.39.784c.305.563.61 1.563.911 2.996.304 1.435.5 3.021.585 4.758.219 3.173.219 5.888 0 8.149-.214 2.257-.421 4.019-.617 5.277-.195 1.262-.488 2.28-.879 3.065-.39.782-.652 1.258-.785 1.435-.129.172-.238.28-.324.323a4.815 4.815 0 01-1.762.328c-.605 0-1.344-.304-2.215-.914-.867-.608-1.769-1.444-2.703-2.512-.933-1.062-1.988-2.55-3.164-4.464-1.172-1.911-2.386-4.168-3.648-6.778l-1.043-1.89c-.653-1.215-1.543-2.985-2.672-5.313a100.975 100.975 0 01-2.996-6.745c-.348-.91-.871-1.605-1.567-2.087l-.324-.194c-.219-.172-.566-.356-1.043-.556a7.006 7.006 0 00-1.5-.422l-17.858.133c-1.824 0-3.063.414-3.715 1.238l-.262.392C.066 5.113 0 5.46 0 5.938c0 .48.129 1.065.391 1.762a215.077 215.077 0 008.507 17.725c3.063 5.696 5.723 10.278 7.981 13.754a161.747 161.747 0 006.91 9.84c2.348 3.086 3.902 5.063 4.66 5.935a43.02 43.02 0 001.793 1.953l1.629 1.565c1.043 1.043 2.574 2.293 4.598 3.746 2.02 1.457 4.258 2.891 6.711 4.305 2.457 1.41 5.312 2.563 8.574 3.453 3.258.892 6.43 1.25 9.516 1.074h7.496c1.52-.129 2.672-.609 3.453-1.433l.258-.324c.176-.262.34-.665.488-1.208.152-.542.23-1.14.23-1.792-.043-1.868.098-3.551.422-5.051.324-1.496.695-2.625 1.109-3.388.414-.762.879-1.401 1.402-1.922.52-.522.891-.836 1.109-.944.215-.11.387-.185.52-.231 1.043-.347 2.27-.007 3.684 1.012 1.41 1.024 2.734 2.281 3.977 3.781 1.238 1.5 2.727 3.184 4.461 5.051 1.742 1.867 3.262 3.258 4.563 4.172l1.305.781c.871.524 2 1 3.391 1.435 1.391.437 2.605.547 3.648.327l16.688-.262c1.648 0 2.934-.272 3.844-.815.914-.544 1.453-1.142 1.629-1.789.176-.653.184-1.392.035-2.22-.158-.824-.31-1.402-.459-1.727zm0 0"/></symbol><symbol viewBox="0 0 300 300" id="volume" xmlns="http://www.w3.org/2000/svg"><path d="M178.5 59.2L112.1 112c-4.8-2.6-10.3-4-16.1-4-18.8 0-34 15.2-34 34s15.2 34 34 34c5.8 0 11.3-1.5 16.1-4l66.4 52.9c8.7 6.9 21.5.7 21.5-10.4v-145c0-11.1-12.8-17.3-21.5-10.3z"/></symbol></svg>